<svg  viewBox="0 0 40 40">
                <g fill="none" fillRule="evenodd">
                  <path d="M.001 25.482c0-4.502-.003-9.004.001-13.506C.006 8.64 1.187 5.779 3.55 3.429 5.397 1.592 7.634.502 10.217.126c.617-.09 1.237-.118 1.86-.117h6.385C21.724.007 24.985 0 28.246 0c3.832 0 7.663.004 11.495.006.255 0 .256 0 .256.265v11.013c-.002 5.666.016 11.333-.015 17-.026 4.648-2.84 8.852-7.102 10.716-1.53.67-3.132 1-4.803 1-5.188-.002-10.375 0-15.562 0l-12.24-.002c-.274 0-.274 0-.274-.264V29.467v-3.985"></path>
                  <path
                    d="M19.841 22.925c.022-1.349-1.086-2.483-2.445-2.503-1.387-.02-2.512 1.053-2.54 2.423-.027 1.369 1.06 2.52 2.401 2.542 1.43.024 2.561-1.054 2.584-2.462m3.377-9.856a3.938 3.938 0 10-.016 7.876c2.178.004 3.954-1.758 3.96-3.929.005-2.17-1.767-3.944-3.944-3.947m8.532 1.485c3.328-.003 6.025-2.693 6.024-6.007 0-3.313-2.704-6.01-6.025-6.013-3.33-.002-6.04 2.703-6.033 6.024.006 3.317 2.706 6 6.034 5.996M5.597 37.482h.238l2.633-.002 20.965-.03c.078 0 .16.001.234-.018.975-.255 1.938-.547 2.835-1.015 1.727-.903 3.098-2.18 4-3.919.742-1.434 1.064-2.981 1.163-4.584.01-.184-.034-.222-.212-.222-7.323.005-14.645.005-21.968.002a.412.412 0 00-.325.133c-1.997 2.021-3.997 4.04-5.997 6.057l-3.566 3.598m-2.993-2.62l.042.027c.07-.076.138-.154.21-.227 3.116-3.143 6.23-6.287 9.35-9.427a.507.507 0 00.16-.394c-.003-7.335-.003-14.67-.003-22.007 0-.045-.002-.091 0-.137.006-.085-.026-.11-.114-.104-.862.065-1.72.146-2.56.37-1.23.329-2.39.806-3.398 1.601-1.753 1.382-2.868 3.18-3.447 5.32-.081.301-.207.592-.207.913L2.604 34.67v.194M0 25.483c0-4.503-.003-9.005.001-13.507C.006 8.64 1.187 5.779 3.55 3.429 5.397 1.592 7.634.502 10.217.126c.617-.09 1.237-.118 1.86-.117h6.385C21.724.007 24.985 0 28.246 0c3.832 0 7.663.004 11.495.006.255 0 .256 0 .256.265v11.013c-.002 5.666.016 11.333-.015 17-.026 4.648-2.84 8.852-7.102 10.716-1.53.67-3.132 1-4.803 1-5.188-.002-10.375 0-15.562 0l-12.24-.002c-.274 0-.274 0-.274-.264V29.467v-3.985"
                    fill="#FFF"
                  ></path>
                </g>
              </svg>