<svg viewBox="0 0 80 125">
        <path
          d="M66.345 106.91h-3.01a.61.61 0 00-.553.353l-2.385 5.108-2.384-5.108a.61.61 0 00-.554-.353H54.45a.408.408 0 00-.359.6l4.247 7.963-4.247 7.964c-.145.272.052.6.36.6h3.008a.61.61 0 00.554-.354l2.384-5.108 2.385 5.108c.1.216.316.354.554.354h3.009a.407.407 0 00.359-.6l-4.248-7.964 4.248-7.964a.407.407 0 00-.36-.6zm-20.73 6.932a.408.408 0 00-.409.408v2.243c0 .225.183.407.408.407h4.282a.408.408 0 00.408-.407v-2.243a.408.408 0 00-.408-.408h-4.282zm33.915-6.932H68.928a.408.408 0 00-.408.407v2.243c0 .225.183.408.408.408h3.466v13.66c0 .226.183.409.408.409h2.854a.408.408 0 00.408-.408v-13.66h3.466a.408.408 0 00.408-.409v-2.243a.408.408 0 00-.408-.407zm-7.585-51.96c0 17.66-14.317 31.975-31.976 31.975-17.66 0-31.975-14.316-31.975-31.976V17.075a3.198 3.198 0 012.872-3.18l57.556-5.757a3.198 3.198 0 013.522 3.181v43.63zM70.345 0c-.322 0-.64.017-.954.048L8.638 6.123C3.788 6.603 0 10.693 0 15.668v39.281c0 22.075 17.895 39.97 39.969 39.97s39.97-17.895 39.97-39.97V9.593A9.593 9.593 0 0070.345 0zM56.757 20.113c-.109 0-.216.005-.322.016l-33.566 3.356a3.198 3.198 0 00-2.883 3.182V54.95c0 11.038 8.947 19.985 19.984 19.985 11.037 0 19.984-8.947 19.984-19.985V23.31a3.197 3.197 0 00-3.197-3.197zm-44.93 86.797H8.971a.407.407 0 00-.408.407v11.01c0 1.757-.825 2.651-2.446 2.651-1.622 0-2.447-.894-2.447-2.65v-11.01a.408.408 0 00-.407-.408H.408a.408.408 0 00-.408.407v11.01c0 4.055 2.063 6.118 6.117 6.118s6.117-2.063 6.117-6.117v-11.01a.407.407 0 00-.408-.408zm8.703 6.932h-4.282a.408.408 0 00-.407.408v2.243c0 .224.183.407.407.407h4.282a.408.408 0 00.408-.407v-2.243a.408.408 0 00-.408-.408zm29.979-6.932h-9.38a.612.612 0 00-.611.611v15.904c0 .338.274.612.611.612h9.38a.408.408 0 00.407-.408v-2.243a.408.408 0 00-.407-.408h-6.321v-11.01h6.32a.408.408 0 00.408-.408v-2.243a.408.408 0 00-.407-.407zm-14.139 0h-2.447a.407.407 0 00-.407.407v10.495l-4.869-10.432a.816.816 0 00-.738-.47h-2.55a.816.816 0 00-.815.815v15.904c0 .225.183.408.408.408h2.447a.408.408 0 00.407-.408v-10.495l4.868 10.432c.135.287.422.47.74.47h2.548c.45 0 .816-.364.816-.815v-15.904a.407.407 0 00-.408-.407z"
          fill="#FFF"
          fillRule="evenodd"
        ></path>
      </svg>