<svg viewBox="0 0 24 24">
<path
  d="M17.473 9.563c0-.12 0-.242-.006-.363a5.746 5.746 0 001.408-1.462 5.716 5.716 0 01-1.622.445 2.838 2.838 0 001.242-1.562 5.61 5.61 0 01-1.793.682 2.815 2.815 0 00-2.057-.891 2.824 2.824 0 00-2.75 3.465 8.009 8.009 0 01-5.813-2.948 2.828 2.828 0 00.875 3.768 2.853 2.853 0 01-1.276-.353v.039c0 1.364.973 2.508 2.26 2.767a2.75 2.75 0 01-.742.098c-.182 0-.358-.016-.529-.049a2.82 2.82 0 002.635 1.958 5.657 5.657 0 01-4.175 1.171 8.022 8.022 0 004.318 1.26c5.186 0 8.024-4.301 8.024-8.025z"
  fill="#FFF"
  fillRule="nonzero"
></path>
</svg>